<svg width="72" height="77" viewBox="0 0 72 77" fill="none" xmlns="http://www.w3.org/2000/svg">
<path d="M35.6658 39.3408C16.1648 39.3408 0.298828 55.2078 0.298828 74.7118C0.298828 75.5398 0.969828 76.2118 1.79883 76.2118H69.5328C70.3608 76.2118 71.0328 75.5398 71.0328 74.7118C71.0328 55.2078 55.1678 39.3408 35.6658 39.3408ZM3.33283 73.2118C4.11883 56.0558 18.3208 42.3408 35.6658 42.3408C53.0108 42.3408 67.2138 56.0558 67.9988 73.2118H3.33283Z" fill="#2E3F7F"/>
<path d="M35.0759 0.984863C23.8479 0.984863 14.7129 10.1199 14.7129 21.3479C14.7129 32.5759 23.8479 41.7109 35.0759 41.7109C46.3049 41.7109 55.4389 32.5759 55.4389 21.3479C55.4389 10.1199 46.3039 0.984863 35.0759 0.984863ZM35.0759 38.7109C25.5019 38.7109 17.7129 30.9219 17.7129 21.3479C17.7129 11.7739 25.5019 3.98486 35.0759 3.98486C44.6499 3.98486 52.4389 11.7739 52.4389 21.3479C52.4389 30.9219 44.6499 38.7109 35.0759 38.7109Z" fill="#2E3F7F"/>
<path d="M23.5 6.5L33 3H39L47.5 6.5L53.5 17.5L52.5 29L46.5 36.5L41 39L42.5 41.5L55.5 47L63.5 56L68 66.5L69 74H2L4 61.5L15 48L26 42.5L30.5 40L23.5 36.5L18 30L16.5 21L18 13.5L23.5 6.5Z" fill="#2E3F7F"/>
</svg>
