<svg width="38" height="32" viewBox="0 0 38 32" fill="none" xmlns="http://www.w3.org/2000/svg">
<path d="M37.2785 30.3038H35.1139V0.721519C35.1139 0.53016 35.0379 0.346639 34.9026 0.211328C34.7673 0.0760169 34.5838 0 34.3924 0H27.6582C27.4669 0 27.2833 0.0760169 27.148 0.211328C27.0127 0.346639 26.9367 0.53016 26.9367 0.721519V30.3038H23.0886V11.7848C23.0886 11.5935 23.0126 11.4099 22.8773 11.2746C22.742 11.1393 22.5584 11.0633 22.3671 11.0633H15.6329C15.4416 11.0633 15.258 11.1393 15.1227 11.2746C14.9874 11.4099 14.9114 11.5935 14.9114 11.7848V30.3038H11.0633V22.3671C11.0633 22.1757 10.9873 21.9922 10.852 21.8569C10.7167 21.7216 10.5331 21.6456 10.3418 21.6456H3.60759C3.41624 21.6456 3.23272 21.7216 3.0974 21.8569C2.96209 21.9922 2.88608 22.1757 2.88608 22.3671V30.3038H0.721519C0.53016 30.3038 0.346639 30.3798 0.211328 30.5151C0.0760169 30.6504 0 30.834 0 31.0253C0 31.2167 0.0760169 31.4002 0.211328 31.5355C0.346639 31.6708 0.53016 31.7468 0.721519 31.7468H37.2785C37.4698 31.7468 37.6534 31.6708 37.7887 31.5355C37.924 31.4002 38 31.2167 38 31.0253C38 30.834 37.924 30.6504 37.7887 30.5151C37.6534 30.3798 37.4698 30.3038 37.2785 30.3038ZM28.3797 1.44304H33.6709V30.3038H28.3797V1.44304ZM16.3544 12.5063H21.6456V30.3038H16.3544V12.5063ZM4.32911 23.0886H9.62025V30.3038H4.32911V23.0886Z" fill="#2E3F7F"/>
</svg>
