<svg width="89" height="89" viewBox="0 0 89 89" fill="none" xmlns="http://www.w3.org/2000/svg">
<path d="M86.5 44.5C86.5 67.696 67.696 86.5 44.5 86.5C21.304 86.5 2.5 67.696 2.5 44.5C2.5 21.304 21.304 2.5 44.5 2.5C67.696 2.5 86.5 21.304 86.5 44.5Z" stroke="#0EAC00" stroke-width="5"/>
<path d="M66.8373 29.6193C65.831 28.6132 64.1991 28.6132 63.1928 29.6195L40.4344 52.3779L28.4543 40.3978C27.4479 39.3915 25.816 39.3915 24.8096 40.3978C23.8031 41.4041 23.8031 43.036 24.8096 44.0425L38.6119 57.8449C39.1152 58.3481 39.7748 58.5997 40.4342 58.5997C41.0936 58.5997 41.7534 58.348 42.2565 57.8449L66.8373 33.264C67.8438 32.2577 67.8438 30.6258 66.8373 29.6193Z" fill="#0EAC00"/>
</svg>
