<svg width="37" height="36" viewBox="0 0 37 36" fill="none" xmlns="http://www.w3.org/2000/svg">
<path d="M27.3737 0C23.3852 0 19.9554 2.46783 18.5 5.97327C17.0436 2.46783 13.6123 0 9.62181 0C4.31657 0 0 4.36408 0 9.72856C0 11.7987 0.661105 13.7945 1.92864 15.5224L17.9179 35.7175C18.0596 35.8959 18.2733 36 18.5 36H18.5005C18.7272 36 18.9414 35.8954 19.0826 35.7165L35.4178 15.0126C35.4332 14.9925 35.4486 14.9714 35.4626 14.9498C36.4681 13.3652 37 11.5595 37 9.72856C37.0005 4.36408 32.6814 0 27.3737 0ZM34.2283 14.1032L18.499 34.0389L3.10918 14.6019C2.05042 13.1576 1.49072 11.4725 1.49072 9.72856C1.49072 5.19557 5.13823 1.50815 9.62131 1.50815C14.1059 1.50815 17.7544 5.19557 17.7544 9.72856C17.7544 10.1453 18.0879 10.4826 18.5 10.4826C18.9121 10.4826 19.2456 10.1453 19.2456 9.72856C19.2456 5.19557 22.8916 1.50815 27.3737 1.50815C31.8593 1.50815 35.5093 5.19557 35.5093 9.72856C35.5093 11.2583 35.0664 12.77 34.2283 14.1032Z" fill="#2E3F7F"/>
</svg>
