<svg width="89" height="89" viewBox="0 0 89 89" fill="none" xmlns="http://www.w3.org/2000/svg">
<path d="M89 44.5C89 69.0767 69.0767 89 44.5 89C19.9233 89 0 69.0767 0 44.5C0 19.9233 19.9233 0 44.5 0C69.0767 0 89 19.9233 89 44.5Z" fill="#2E3F7F"/>
<path d="M21 42.5C20.1716 42.5 19.5 43.1716 19.5 44C19.5 44.8284 20.1716 45.5 21 45.5V42.5ZM70.0607 45.0607C70.6464 44.4749 70.6464 43.5251 70.0607 42.9393L60.5147 33.3934C59.9289 32.8076 58.9792 32.8076 58.3934 33.3934C57.8076 33.9792 57.8076 34.9289 58.3934 35.5147L66.8787 44L58.3934 52.4853C57.8076 53.0711 57.8076 54.0208 58.3934 54.6066C58.9792 55.1924 59.9289 55.1924 60.5147 54.6066L70.0607 45.0607ZM21 45.5H69V42.5H21V45.5Z" fill="white"/>
</svg>
