<svg width="89" height="89" viewBox="0 0 89 89" fill="none" xmlns="http://www.w3.org/2000/svg">
<path d="M6.53567e-07 44.5C6.53567e-07 69.0767 19.9233 89 44.5 89C69.0767 89 89 69.0767 89 44.5C89 19.9233 69.0767 0 44.5 0C19.9233 0 6.53567e-07 19.9233 6.53567e-07 44.5Z" fill="#2E3F7F"/>
<path d="M68 42.5C68.8284 42.5 69.5 43.1716 69.5 44C69.5 44.8284 68.8284 45.5 68 45.5V42.5ZM18.9393 45.0607C18.3536 44.4749 18.3536 43.5251 18.9393 42.9393L28.4853 33.3934C29.0711 32.8076 30.0208 32.8076 30.6066 33.3934C31.1924 33.9792 31.1924 34.9289 30.6066 35.5147L22.1213 44L30.6066 52.4853C31.1924 53.0711 31.1924 54.0208 30.6066 54.6066C30.0208 55.1924 29.0711 55.1924 28.4853 54.6066L18.9393 45.0607ZM68 45.5H20V42.5H68V45.5Z" fill="white"/>
</svg>
