<svg id="cart" width="28" height="41" fill="none" xmlns="http://www.w3.org/2000/svg"><path d="m27.31 10.922-5.211-.054v-3.2C22.099 3.44 18.425 0 13.912 0 9.399 0 5.727 3.44 5.727 7.668v3.028l-5.023-.052a.74.74 0 0 0-.497.188.632.632 0 0 0-.207.464v29.052c0 .36.311.652.696.652h26.608c.385 0 .696-.292.696-.652V11.575c0-.358-.308-.649-.69-.653ZM7.12 7.668c0-3.509 3.046-6.364 6.792-6.364s6.794 2.855 6.794 6.364v3.185L7.12 10.71V7.668Zm19.487 32.028H1.392v-27.74L5.727 12v1.953c-.96.295-1.661 1.132-1.661 2.129 0 1.24 1.077 2.25 2.4 2.25 1.325 0 2.402-1.01 2.402-2.25 0-1.027-.743-1.886-1.75-2.154v-1.914l13.588.143v1.784c-.983.281-1.705 1.13-1.705 2.14 0 1.241 1.077 2.25 2.4 2.25 1.325 0 2.402-1.009 2.402-2.25 0-1.01-.722-1.86-1.705-2.14v-1.77l4.509.048v27.476ZM6.467 15.138c.556 0 1.008.424 1.008.945 0 .52-.452.945-1.008.945s-1.009-.424-1.009-.945c0-.52.453-.945 1.009-.945Zm14.935 0c.556 0 1.009.424 1.009.945 0 .52-.453.945-1.009.945-.556 0-1.008-.424-1.008-.945 0-.52.452-.945 1.008-.945Z" fill="#2E3F7F"/></svg>