<svg id="chart" width="38" height="32" fill="none" xmlns="http://www.w3.org/2000/svg"><path d="M37.279 30.304h-2.165V.722A.722.722 0 0 0 34.392 0h-6.734a.722.722 0 0 0-.721.722v29.582h-3.848v-18.52a.722.722 0 0 0-.722-.72h-6.734a.722.722 0 0 0-.722.72v18.52h-3.848v-7.937a.721.721 0 0 0-.721-.721H3.608a.722.722 0 0 0-.722.721v7.937H.722a.722.722 0 1 0 0 1.443h36.556a.722.722 0 0 0 0-1.443Zm-8.9-28.861h5.292v28.86H28.38V1.444ZM16.355 12.506h5.292v17.798h-5.292V12.506ZM4.33 23.09H9.62v7.215H4.33v-7.215Z" fill="#2E3F7F"/></svg>