<svg id="close" width="20" height="20" fill="none" xmlns="http://www.w3.org/2000/svg"><path d="M13.656 14.345a.29.29 0 0 1-.206-.085L6.138 6.947a.291.291 0 0 1 .412-.412l7.311 7.313a.291.291 0 0 1-.205.497Z" fill="#666" fill-opacity=".5"/><path d="M6.344 14.345a.29.29 0 0 1-.206-.497l7.313-7.313a.291.291 0 1 1 .412.412L6.55 14.26a.29.29 0 0 1-.206.085Z" fill="#666" fill-opacity=".5"/><path d="M10.002 20C4.487 20 0 15.516 0 10.003 0 4.487 4.487 0 10.002 0 15.515 0 20 4.487 20 10.002 20 15.515 15.515 20 10.002 20Zm0-19.418c-5.194 0-9.42 4.226-9.42 9.42 0 5.192 4.226 9.416 9.42 9.416 5.192 0 9.415-4.224 9.415-9.417S15.194.582 10.002.582Z" fill="#666" fill-opacity=".5"/></svg>