<svg id="heart" width="37" height="36" fill="none" xmlns="http://www.w3.org/2000/svg"><path d="M27.374 0c-3.989 0-7.419 2.468-8.874 5.973C17.044 2.468 13.612 0 9.622 0 4.317 0 0 4.364 0 9.729c0 2.07.661 4.066 1.929 5.793l15.989 20.196a.742.742 0 0 0 1.165-.001l16.335-20.704a.987.987 0 0 0 .045-.063A9.743 9.743 0 0 0 37 9.729C37 4.364 32.681 0 27.374 0Zm6.854 14.103L18.5 34.04 3.109 14.602c-1.059-1.444-1.618-3.13-1.618-4.873 0-4.533 3.647-8.22 8.13-8.22 4.485 0 8.133 3.687 8.133 8.22a.75.75 0 0 0 .746.754.75.75 0 0 0 .746-.754c0-4.533 3.646-8.22 8.128-8.22 4.485 0 8.135 3.687 8.135 8.22 0 1.53-.443 3.041-1.28 4.374Z" fill="#2E3F7F"/></svg>