<svg id="adv5" width="75" height="68" viewBox="0 0 75 68" fill="none" xmlns="http://www.w3.org/2000/svg">
<path d="M72.996 0H34.001C33.172 0 32.501 0.671 32.501 1.5V21.245L0.992001 32.589C0.397001 32.803 0 33.368 0 34V66.494C0 67.322 0.671 67.994 1.5 67.994L34.001 67.998H72.996C73.824 67.998 74.496 67.326 74.496 66.498V1.5C74.496 0.671 73.824 0 72.996 0ZM3 35.055L32.501 24.433V64.998L3 64.994V35.055V35.055ZM71.496 64.998H35.501V3H71.496V64.998V64.998Z" fill="#2E3F7F"/>
<path d="M46.9941 28.997H59.9931C60.8211 28.997 61.4931 28.326 61.4931 27.497V14.499C61.4931 13.67 60.8211 12.999 59.9931 12.999H46.9941C46.1661 12.999 45.4941 13.67 45.4941 14.499V27.497C45.4941 28.326 46.1661 28.997 46.9941 28.997ZM48.4941 15.999H58.4931V25.997H48.4941V15.999Z" fill="#2E3F7F"/>
<path d="M59.998 38.998H47.002C46.174 38.998 45.502 39.67 45.502 40.498V53.496C45.502 54.324 46.174 54.996 47.002 54.996H59.998C60.826 54.996 61.498 54.324 61.498 53.496V40.498C61.498 39.67 60.826 38.998 59.998 38.998ZM58.498 51.996H48.502V41.998H58.498V51.996Z" fill="#2E3F7F"/>
</svg>
