<svg id="adv2" width="93" height="75" fill="none" xmlns="http://www.w3.org/2000/svg"><path d="M66.509 53.267h-.016a1.502 1.502 0 0 1-1.273-.732L50.962 28.59a1.49 1.49 0 0 1-.103-.208 18.608 18.608 0 0 1-2.716-9.693C48.16 8.378 56.557 0 66.863 0h.023a18.58 18.58 0 0 1 13.226 5.501 18.595 18.595 0 0 1 5.453 13.238c0 3.378-.934 6.705-2.704 9.642a1.442 1.442 0 0 1-.134.277L67.782 52.563a1.508 1.508 0 0 1-1.273.704Zm-12.831-25.98L66.54 48.888l13.476-21.555c.034-.092.077-.182.13-.267 1.582-2.527 2.418-5.407 2.418-8.328v-.002a15.614 15.614 0 0 0-4.578-11.119 15.607 15.607 0 0 0-11.104-4.618h-.02c-8.655 0-15.705 7.035-15.72 15.692 0 2.954.832 5.836 2.403 8.332.054.083.098.172.133.264Z" fill="#2E3F7F"/><path d="M66.868 25.716h-.016a7.857 7.857 0 0 1-5.596-2.323 7.868 7.868 0 0 1-2.315-5.611 7.86 7.86 0 0 1 2.326-5.593 7.873 7.873 0 0 1 5.595-2.312h.008c4.365.005 7.914 3.563 7.91 7.932a7.864 7.864 0 0 1-2.326 5.597 7.862 7.862 0 0 1-5.586 2.31Zm-.007-12.839a4.89 4.89 0 0 0-3.476 1.437 4.878 4.878 0 0 0-1.444 3.473 4.893 4.893 0 0 0 1.44 3.487 4.878 4.878 0 0 0 3.474 1.442h.01a4.882 4.882 0 0 0 3.471-1.434 4.88 4.88 0 0 0 1.444-3.475 4.929 4.929 0 0 0-4.914-4.929l-.005-.001Zm6.42 4.931h.01-.01ZM91.358 74.545H1.5a1.5 1.5 0 0 1-1.38-2.09l16.346-38.242a1.501 1.501 0 0 1 1.379-.911h38.568a1.5 1.5 0 1 1 0 3H18.835L3.772 71.544h85.313l-14.598-34.15a1.5 1.5 0 1 1 2.759-1.18l15.49 36.24a1.502 1.502 0 0 1-1.378 2.09Z" fill="#2E3F7F"/><path d="M66.685 74.276a1.5 1.5 0 0 1-1.488-1.33c-.009-.074-.967-7.454-11.3-9.207-.96-.163-2.494-.312-4.27-.483-9.779-.946-18.699-2.174-20.419-6.747-1.11-2.95.512-5.2 1.814-7.006 1.426-1.978 1.896-2.842 1.168-4.083-.46-.786-1.929-1.426-3.349-2.045-2.78-1.212-6.588-2.872-6.608-7.422a1.5 1.5 0 0 1 1.493-1.507h.007a1.5 1.5 0 0 1 1.5 1.493c.011 2.42 1.824 3.385 4.808 4.686 1.86.81 3.783 1.649 4.738 3.278 1.785 3.044-.01 5.536-1.322 7.355-1.23 1.706-1.958 2.82-1.44 4.195 1.205 3.203 12.481 4.293 17.9 4.818 1.833.177 3.416.33 4.482.51 12.532 2.128 13.734 11.43 13.78 11.826a1.5 1.5 0 0 1-1.494 1.669Z" fill="#2E3F7F"/></svg>