<svg id="adv" width="90" height="86" fill="none" xmlns="http://www.w3.org/2000/svg"><path d="M88.809 11.266a1.497 1.497 0 0 0-1.138-.523H16.893l-2.886-9.672A1.502 1.502 0 0 0 12.569 0H1.5a1.5 1.5 0 1 0 0 3h9.951l18.234 61.104c.002.007.008.013.01.02l2.265 7.704a7.814 7.814 0 0 0-2.316 5.557c0 4.33 3.521 7.853 7.848 7.853 4.188 0 7.609-3.308 7.82-7.451h19.659c-.001.055-.008.109-.008.165 0 4.326 3.519 7.846 7.844 7.846s7.845-3.52 7.845-7.846c0-4.326-3.52-7.846-7.845-7.846-3.199 0-5.952 1.928-7.171 4.681H44.884a7.804 7.804 0 0 0-1.848-2.947 7.787 7.787 0 0 0-5.541-2.298h-.002c-1.029 0-2.01.204-2.911.566l-1.45-4.933h46.673c.741 0 1.371-.541 1.482-1.273l7.867-51.433a1.499 1.499 0 0 0-.345-1.203ZM72.807 73.107a4.851 4.851 0 0 1 4.845 4.846 4.851 4.851 0 0 1-4.845 4.846 4.85 4.85 0 0 1-4.844-4.846 4.85 4.85 0 0 1 4.844-4.846Zm-35.314-.564h.001c1.291 0 2.505.504 3.419 1.419a4.812 4.812 0 0 1 1.418 3.425c0 2.676-2.171 4.853-4.84 4.853a4.856 4.856 0 0 1-4.848-4.853 4.853 4.853 0 0 1 4.85-4.844Zm41.023-10.367H32.249l-2.836-9.648a1.498 1.498 0 0 0-.152-.338L17.788 13.743h68.136l-7.408 48.433Z" fill="#2E3F7F"/></svg>