<svg id="search" width="29" height="31" fill="none" xmlns="http://www.w3.org/2000/svg"><path d="M5.75 5.06a8.395 8.395 0 0 1 6.1-2.139 8.39 8.39 0 0 1 5.825 2.8c3.105 3.47 2.809 8.82-.661 11.925a8.412 8.412 0 0 1-5.628 2.148 8.427 8.427 0 0 1-6.297-2.81C1.984 13.516 2.28 8.167 5.75 5.06Zm.136 11.213c2.711 3.03 7.384 3.29 10.415.577 3.032-2.713 3.29-7.385.578-10.416a7.328 7.328 0 0 0-5.506-2.458c-1.816 0-3.545.66-4.91 1.88-3.03 2.713-3.29 7.386-.577 10.417Z" fill="#2E3F7F"/><path d="M.02 10.665a11.27 11.27 0 0 1 3.797-7.808A11.277 11.277 0 0 1 12.023.02a11.269 11.269 0 0 1 7.808 3.797c4.03 4.543 3.74 11.448-.565 15.645l1.843 2.102.59-.524a.533.533 0 0 1 .753.043l6.412 7.165a.533.533 0 0 1-.042.755l-2.014 1.802a.533.533 0 0 1-.755-.042l-6.42-7.174a.534.534 0 0 1 .044-.756l.632-.56-1.841-2.101a11.247 11.247 0 0 1-7.803 2.495 11.272 11.272 0 0 1-7.808-3.797 11.267 11.267 0 0 1-2.836-8.205Zm26.473 18.988 1.218-1.09-5.7-6.37-1.223 1.084 5.705 6.376ZM3.657 18.162a10.208 10.208 0 0 0 7.072 3.438 10.19 10.19 0 0 0 7.433-2.57c4.239-3.759 4.629-10.266.87-14.505a10.208 10.208 0 0 0-7.702-3.457 10.2 10.2 0 0 0-6.804 2.588 10.208 10.208 0 0 0-3.44 7.073 10.21 10.21 0 0 0 2.57 7.433Z" fill="#2E3F7F"/></svg>